<svg width="100" height="102" viewBox="0 0 100 102" fill="none" xmlns="http://www.w3.org/2000/svg">
<ellipse cx="53.7037" cy="52.7422" rx="26.6768" ry="26.0417" transform="rotate(1.63938 53.7037 52.7422)" fill="#E06B76"/>
<ellipse cx="30.8643" cy="73.6929" rx="22.2307" ry="21.5955" transform="rotate(1.63938 30.8643 73.6929)" fill="#E06B76"/>
<path fill-rule="evenodd" clip-rule="evenodd" d="M17.0197 98.853C7.61006 93.8801 1.33916 84.0228 1.65873 72.857C1.81143 67.5215 3.4494 62.5703 6.17433 58.3715L6.20352 58.3724L30.8006 75.9151L17.0197 98.853Z" fill="#E06B76"/>
<path fill-rule="evenodd" clip-rule="evenodd" d="M50.2524 17.9146C55.2254 8.50501 65.0826 2.23411 76.2484 2.55368C81.584 2.70639 86.5351 4.34437 90.7339 7.06932L90.7331 7.09847L73.1904 31.6956L50.2524 17.9146Z" fill="#E06B76"/>
<ellipse cx="76.543" cy="31.7915" rx="22.2307" ry="21.5955" transform="rotate(1.63938 76.543 31.7915)" fill="#E06B76"/>
</svg>
