<svg width="80" height="80" viewBox="0 0 80 80" fill="none" xmlns="http://www.w3.org/2000/svg">
<path d="M43.959 78.6805C43.7459 77.2952 42.5525 74.0772 39.4836 72.287C35.6476 70.0493 32.1312 60.4591 31.8115 57.9018C31.4918 55.3444 28.9345 53.746 23.5 47.9919C18.0656 42.2378 26.0574 41.2788 28.9345 42.8772C31.2361 44.1558 36.0738 47.8854 38.2049 49.5903C38.2049 41.8116 38.2049 24.5919 38.2049 17.9427C38.2049 11.2935 47.7951 10.9099 47.7951 17.9427C47.7951 24.0804 47.7951 36.4837 47.7951 41.9181M48.7541 13.1476C50.3525 10.5902 57.3853 8.99184 57.3853 15.705C57.3853 23.3771 57.3853 35.5247 57.3853 40.6394M60.2623 35.8444C66.3361 32.9673 68.5738 39.6804 67.2951 44.4755M69.8525 40.9591C73.6886 38.0821 76.8853 41.5985 76.8853 45.4345C76.8853 49.2706 77.205 58.8608 75.6066 61.7378C74.0082 64.6149 72.0902 74.205 72.0902 79.0001" stroke="black" stroke-width="2" stroke-linecap="round" stroke-linejoin="round"/>
<line x1="22.3562" y1="21.0853" x2="22.3562" y2="3.00405" stroke="black" stroke-width="2" stroke-linecap="round"/>
<line x1="27.9081" y1="8.01974" x2="22.541" y2="2.65268" stroke="black" stroke-width="2" stroke-linecap="round"/>
<line x1="22.3521" y1="2.41424" x2="16.9851" y2="7.7813" stroke="black" stroke-width="2" stroke-linecap="round"/>
<line x1="1" y1="-1" x2="19.0812" y2="-1" transform="matrix(0 1 1 0 15.0447 13.1475)" stroke="black" stroke-width="2" stroke-linecap="round"/>
<line x1="1" y1="-1" x2="8.59017" y2="-1" transform="matrix(-0.707107 0.707107 0.707107 0.707107 21.0108 27.213)" stroke="black" stroke-width="2" stroke-linecap="round"/>
<line x1="1" y1="-1" x2="8.59017" y2="-1" transform="matrix(-0.707107 -0.707107 -0.707107 0.707107 14.0406 34.2328)" stroke="black" stroke-width="2" stroke-linecap="round"/>
</svg>
