<svg width="872" height="909" viewBox="0 0 872 909" fill="none" xmlns="http://www.w3.org/2000/svg">
<path fill-rule="evenodd" clip-rule="evenodd" d="M868.929 253.388L859.385 260.685V260.711L718.593 368.367C718.295 368.594 718.016 368.845 717.759 369.118L509.729 589.097C506.423 592.593 500.885 592.68 497.471 589.288L391.088 483.598C388.345 480.873 388.331 476.441 391.056 473.699L392.233 472.514C394.958 469.771 399.39 469.757 402.132 472.481L498.258 567.981C501.049 570.754 505.575 570.683 508.278 567.825L707.153 357.526C707.468 357.193 707.809 356.886 708.173 356.608L870.567 232.435C870.728 232.311 870.894 232.195 871.063 232.088L871.642 247.63C871.726 249.876 870.714 252.023 868.929 253.388Z" fill="#454545"/>
<path d="M746.595 82.4413C739.854 78.4326 734.824 78.7765 727.281 76.4282M711.428 95.3784C708.331 103.578 707.42 130.546 709.242 137.47M728.374 149.131C746.231 146.034 767.914 154.78 767.914 154.78C767.914 154.78 756.253 145.851 760.444 114.693" stroke="#F1E6E6" stroke-width="10"/>
<path d="M579.142 244.975C569.484 265.748 594.083 286.884 617.953 307.474C597.363 286.156 564.747 268.481 545.432 277.956" stroke="#F1E6E6" stroke-width="10"/>
<path fill-rule="evenodd" clip-rule="evenodd" d="M45.8037 890.374C60.5968 890.374 72.589 878.382 72.589 863.589C72.589 848.796 60.5968 836.804 45.8037 836.804C31.0106 836.804 19.0184 848.796 19.0184 863.589C19.0184 878.382 31.0106 890.374 45.8037 890.374ZM45.8037 908.96C70.8614 908.96 91.1748 888.647 91.1748 863.589C91.1748 838.531 70.8614 818.218 45.8037 818.218C20.7459 818.218 0.432617 838.531 0.432617 863.589C0.432617 888.647 20.7459 908.96 45.8037 908.96Z" fill="#F1E6E6"/>
<path d="M762.007 17.2487L862.077 0.809814L863.03 21.4583L765.39 37.94C764.87 38.025 764.397 38.2918 764.056 38.6928L81.0041 840.995L64.4882 828.057L748.099 25.0988C751.659 20.9171 756.588 18.1352 762.007 17.2487Z" fill="#F1E6E6"/>
</svg>
