<svg width="483" height="360" viewBox="0 0 483 360" fill="none" xmlns="http://www.w3.org/2000/svg">
<path id="01-vehicular-road" fill-rule="evenodd" clip-rule="evenodd" d="M479.929 21.3882L470.385 28.685V28.7109L329.593 136.367C329.295 136.594 329.016 136.845 328.759 137.118L120.729 357.097C117.423 360.593 111.885 360.68 108.471 357.288L2.08794 251.598C-0.654651 248.873 -0.669133 244.441 2.05559 241.699L3.23282 240.514C5.95754 237.771 10.3897 237.757 13.1323 240.481L109.258 335.981C112.049 338.754 116.575 338.683 119.278 335.825L318.153 125.526C318.468 125.193 318.809 124.886 319.173 124.608L481.567 0.434807C481.728 0.311039 481.894 0.195422 482.063 0.0878906L482.642 15.6297C482.726 17.8759 481.714 20.023 479.929 21.3882Z" fill="#454545"/>
</svg>
