<svg width="864" height="909" viewBox="0 0 864 909" fill="none" xmlns="http://www.w3.org/2000/svg">
<g id="04-pedestrian-path">
<path id="pool way (Stroke)" fill-rule="evenodd" clip-rule="evenodd" d="M738.373 73.9424C741.71 74.7198 745.188 75.7871 749.151 78.1436L744.04 86.739C741.261 85.0868 738.853 84.3218 736.104 83.6818C735.377 83.5124 734.57 83.3423 733.698 83.1586C731.412 82.6768 728.684 82.1019 725.795 81.2023L728.767 71.6543C731.187 72.4078 733.168 72.8239 735.276 73.2668C736.261 73.4737 737.274 73.6866 738.373 73.9424ZM702.06 102.163C702.28 98.1235 702.751 94.0686 703.823 91.2331L713.177 94.7671C712.7 96.0314 712.262 98.7195 712.045 102.705C711.838 106.516 711.854 111.008 712.022 115.526C712.367 124.747 713.32 133.321 714.077 136.197L704.406 138.742C703.341 134.694 702.375 125.134 702.029 115.9C701.853 111.192 701.831 106.376 702.06 102.163ZM757.225 146.226C754.886 139.164 753.5 128.81 755.488 114.027L765.399 115.36C763.395 130.262 765.237 139.406 767.265 144.603C768.283 147.21 769.369 148.88 770.107 149.832C770.478 150.31 770.767 150.613 770.924 150.767C771.003 150.844 771.049 150.885 771.056 150.891L771.057 150.891C771.057 150.891 771.05 150.886 771.036 150.875C771.028 150.868 771.017 150.859 771.003 150.848L770.981 150.831L770.968 150.821L770.961 150.815C770.96 150.815 770.96 150.814 770.931 150.85L766.049 159.408C766.045 159.418 766.046 159.418 766.046 159.418L766.044 159.417L766.043 159.417L766.012 159.404C765.98 159.392 765.929 159.371 765.858 159.344C765.717 159.289 765.498 159.205 765.207 159.097C764.627 158.882 763.763 158.571 762.664 158.205C760.464 157.47 757.345 156.519 753.696 155.661C746.287 153.919 737.176 152.679 729.229 154.058L727.52 144.205C737.429 142.486 748.088 144.07 755.985 145.927C756.405 146.025 756.818 146.125 757.225 146.226Z" fill="#F1E6E6"/>
<path id="auditorium way (Stroke)" fill-rule="evenodd" clip-rule="evenodd" d="M578.786 274.738C572.499 264.922 569.413 254.041 574.608 242.868L583.675 247.083C580.034 254.915 582.414 263.321 589.959 273.273C594.211 278.88 599.771 284.527 605.976 290.251C611.592 294.489 616.872 299.158 621.549 304.001L614.687 311.261L614.219 310.857C609.334 306.643 604.328 302.326 599.557 297.936C593.024 293.046 586.05 288.819 579.167 285.729C566.436 280.015 555.244 278.712 547.634 282.445L543.23 273.467C553.658 268.352 566.52 270.013 578.786 274.738Z" fill="#F1E6E6"/>
<path id="round" fill-rule="evenodd" clip-rule="evenodd" d="M45.8037 890.374C60.5968 890.374 72.589 878.382 72.589 863.589C72.589 848.796 60.5968 836.804 45.8037 836.804C31.0106 836.804 19.0184 848.796 19.0184 863.589C19.0184 878.382 31.0106 890.374 45.8037 890.374ZM45.8037 908.96C70.8614 908.96 91.1748 888.647 91.1748 863.589C91.1748 838.531 70.8614 818.218 45.8037 818.218C20.7459 818.218 0.432617 838.531 0.432617 863.589C0.432617 888.647 20.7459 908.96 45.8037 908.96Z" fill="#F1E6E6"/>
<path id="main-route (Stroke)" d="M762.007 17.2487L862.077 0.809814L863.03 21.4583L765.39 37.94C764.87 38.025 764.397 38.2918 764.056 38.6928L81.0041 840.995L64.4882 828.057L748.099 25.0988C751.659 20.9171 756.588 18.1352 762.007 17.2487Z" fill="#F1E6E6"/>
<circle id="Ellipse 7" cx="46" cy="864" r="28" fill="#A8DE86"/>
</g>
</svg>
