<svg width="864" height="909" viewBox="0 0 864 909" fill="none" xmlns="http://www.w3.org/2000/svg">
<g id="04-pedestrian-path">
<path id="pool way" d="M746.595 82.4413C739.854 78.4326 734.824 78.7765 727.281 76.4282M711.428 95.3784C708.331 103.578 707.42 130.546 709.242 137.47M728.374 149.131C746.231 146.034 767.914 154.78 767.914 154.78C767.914 154.78 756.253 145.851 760.444 114.693" stroke="#F1E6E6" stroke-width="10"/>
<path id="auditorium way" d="M579.142 244.975C569.484 265.748 594.083 286.884 617.953 307.474C597.363 286.156 564.747 268.481 545.432 277.956" stroke="#F1E6E6" stroke-width="10"/>
<path id="round" fill-rule="evenodd" clip-rule="evenodd" d="M45.8037 890.374C60.5968 890.374 72.589 878.382 72.589 863.589C72.589 848.796 60.5968 836.804 45.8037 836.804C31.0106 836.804 19.0184 848.796 19.0184 863.589C19.0184 878.382 31.0106 890.374 45.8037 890.374ZM45.8037 908.96C70.8614 908.96 91.1748 888.647 91.1748 863.589C91.1748 838.531 70.8614 818.218 45.8037 818.218C20.7459 818.218 0.432617 838.531 0.432617 863.589C0.432617 888.647 20.7459 908.96 45.8037 908.96Z" fill="#F1E6E6"/>
<path id="main-route (Stroke)" d="M762.007 17.2487L862.077 0.809814L863.03 21.4583L765.39 37.94C764.87 38.025 764.397 38.2918 764.056 38.6928L81.0041 840.995L64.4882 828.057L748.099 25.0988C751.659 20.9171 756.588 18.1352 762.007 17.2487Z" fill="#F1E6E6"/>
<circle id="Ellipse 7" cx="46" cy="864" r="28" fill="#A8DE86"/>
</g>
</svg>
