<svg width="110" height="118" viewBox="0 0 110 118" fill="none" xmlns="http://www.w3.org/2000/svg">
<g id="06-lake">
<path id="laguna" d="M56.8984 0.864497C84.3374 2.13482 103.477 51.9951 109.617 76.7664L75.3181 117.099C69.1782 114.241 52.5793 106.81 35.3029 99.9498C13.7073 91.3751 3.22719 67.5565 0.68654 51.3599C-1.85411 35.1633 22.5996 -0.723409 56.8984 0.864497Z" fill="#33D1F4"/>
<path id="Vector 2" d="M67.6962 83.1181C78.621 85.4046 84.2104 98.8914 87.3862 103.126L95.9609 92.9633C90.562 83.5417 80.9711 71.177 80.717 66.6038C80.3994 60.8874 84.528 48.5017 60.0743 35.7984C35.6205 23.0952 33.8443 59.9785 33.0799 66.6038C32.1272 74.8608 54.0402 80.2598 67.6962 83.1181Z" fill="#EFEFC6"/>
</g>
</svg>
