<svg width="105" height="94" viewBox="0 0 105 94" fill="none" xmlns="http://www.w3.org/2000/svg">
<g id="08-school">
<path id="Union" fill-rule="evenodd" clip-rule="evenodd" d="M59.816 31.319V31.319C59.816 33.3245 62.7056 34.8754 64.1257 33.4592L80.9714 16.6595C81.7535 15.8796 83.0198 15.8813 83.7998 16.6634L104.207 37.1265C104.987 37.9086 104.985 39.1749 104.203 39.9549L50.9626 93.0499C50.1805 93.8299 48.9142 93.8282 48.1342 93.046L27.0093 71.8633C26.994 71.848 26.9692 71.848 26.9538 71.8633V71.8633C26.9385 71.8786 26.9137 71.8785 26.8984 71.8632L4.76981 49.674C4.17586 49.0784 4.17718 48.1141 4.77276 47.5202V47.5202C5.29855 46.9958 5.36549 46.1711 4.96552 45.5455C2.30724 41.3874 0.778931 36.5206 0.778931 31.319C0.778931 16.0227 13.9948 3.62256 30.2975 3.62256C46.6001 3.62256 59.816 16.0227 59.816 31.319ZM39.9186 57.5109C39.895 57.5185 39.8878 57.5486 39.9054 57.5662V57.5662C39.9184 57.5792 39.9395 57.5793 39.9525 57.5664V57.5664C39.9773 57.5416 39.9519 57.5001 39.9186 57.5109V57.5109Z" fill="#D9D9D9"/>
<g id="aulas incial">
<path id="Polygon 1" d="M19.4362 22.2367L25.7142 28.2264L25.9259 37.1189L19.9472 43.705L11.2804 44.1267L5.00242 38.1369L4.79073 29.2444L10.7694 22.6583L19.4362 22.2367Z" fill="#ED8080"/>
<path id="Polygon 2" d="M33.734 6.93315L40.012 12.9229L40.2237 21.8154L34.2451 28.4015L25.5783 28.8231L19.3003 22.8334L19.0886 13.9409L25.0672 7.35481L33.734 6.93315Z" fill="#ED8080"/>
<path id="Polygon 3" d="M49.0375 21.2309L55.3156 27.2207L55.5273 36.1132L49.5486 42.6993L40.8818 43.1209L34.6038 37.1312L34.3921 28.2387L40.3708 21.6526L49.0375 21.2309Z" fill="#ED8080"/>
</g>
<rect id="aulas secundaria" x="86.2941" y="21.6719" width="22.7327" height="75.6495" transform="rotate(45.0783 86.2941 21.6719)" fill="#BDBDBD"/>
</g>
</svg>
