<svg width="1400" height="1400" viewBox="0 0 1400 1400" fill="none" xmlns="http://www.w3.org/2000/svg">
<g id="Frame 2">
<rect width="1400" height="1400" fill="white"/>
<g id="00-all-area">
<path id="way" d="M386.47 830.329L240.851 1012.57C237.163 1017.19 235.832 1023.26 237.25 1028.99L317.936 1355.25C321.543 1369.83 339.854 1374.66 350.181 1363.74L1046.47 627.828C1047.17 627.09 1047.93 626.409 1048.74 625.793L1193.19 515.342C1198.09 511.596 1200.86 505.704 1200.63 499.541L1184.68 71.7178C1184.28 60.9505 1175.02 52.6715 1164.27 53.4792L1058.35 61.442C1053.34 61.8186 1048.69 64.1636 1045.4 67.9641L386.47 830.329Z" fill="#A8DE86"/>
</g>
<g id="01-vehicular-road">
<path id="vehicular-road" fill-rule="evenodd" clip-rule="evenodd" d="M1197.93 511.388L1188.39 518.685V518.711L1047.59 626.367C1047.3 626.594 1047.02 626.845 1046.76 627.118L838.729 847.097C835.423 850.593 829.885 850.68 826.471 847.288L720.088 741.598C717.345 738.873 717.331 734.441 720.056 731.699L721.233 730.514C723.958 727.771 728.39 727.757 731.132 730.481L827.258 825.981C830.049 828.754 834.575 828.683 837.278 825.825L1036.15 615.526C1036.47 615.193 1036.81 614.886 1037.17 614.608L1199.57 490.435C1199.73 490.311 1199.89 490.195 1200.06 490.088L1200.64 505.63C1200.73 507.876 1199.71 510.023 1197.93 511.388Z" fill="#454545"/>
</g>
<g id="03-vehicle-parking">
<path id="03-vehicle" fill-rule="evenodd" clip-rule="evenodd" d="M1037.59 614.917C1037.76 614.731 1037.95 614.559 1038.16 614.403L1055.03 601.392C1057.22 599.703 1057.62 596.556 1055.93 594.369L1052.5 589.942C1050.81 587.763 1047.68 587.362 1045.49 589.046L1027.86 602.64C1027.52 602.907 1027.19 603.2 1026.89 603.516L916.455 719.641C914.548 721.646 914.632 724.817 916.641 726.719L920.715 730.573C922.717 732.467 925.875 732.384 927.774 730.386L1037.59 614.917Z" fill="#606060"/>
</g>
<g id="04-pedestrian-path">
<path id="pool way (Stroke)" fill-rule="evenodd" clip-rule="evenodd" d="M1067.37 331.942C1070.71 332.72 1074.19 333.787 1078.15 336.144L1073.04 344.739C1070.26 343.087 1067.85 342.322 1065.1 341.682C1064.38 341.512 1063.57 341.342 1062.7 341.159C1060.41 340.677 1057.68 340.102 1054.79 339.202L1057.77 329.654C1060.19 330.408 1062.17 330.824 1064.28 331.267C1065.26 331.474 1066.27 331.687 1067.37 331.942ZM1031.06 360.163C1031.28 356.124 1031.75 352.069 1032.82 349.233L1042.18 352.767C1041.7 354.031 1041.26 356.72 1041.05 360.705C1040.84 364.516 1040.85 369.008 1041.02 373.526C1041.37 382.747 1042.32 391.321 1043.08 394.197L1033.41 396.742C1032.34 392.694 1031.37 383.134 1031.03 373.9C1030.85 369.192 1030.83 364.376 1031.06 360.163ZM1086.22 404.226C1083.89 397.164 1082.5 386.81 1084.49 372.027L1094.4 373.36C1092.39 388.262 1094.24 397.406 1096.27 402.603C1097.28 405.21 1098.37 406.88 1099.11 407.832C1099.48 408.31 1099.77 408.613 1099.92 408.767C1100 408.844 1100.05 408.885 1100.06 408.891L1100.06 408.891C1100.06 408.891 1100.05 408.886 1100.04 408.875C1100.03 408.868 1100.02 408.859 1100 408.848L1099.98 408.831L1099.97 408.821L1099.96 408.815C1099.96 408.815 1099.96 408.814 1099.93 408.85L1095.05 417.408C1095.05 417.418 1095.05 417.418 1095.05 417.418L1095.04 417.417L1095.04 417.417L1095.01 417.404C1094.98 417.392 1094.93 417.371 1094.86 417.344C1094.72 417.289 1094.5 417.205 1094.21 417.097C1093.63 416.882 1092.76 416.571 1091.66 416.205C1089.46 415.47 1086.34 414.519 1082.7 413.661C1075.29 411.919 1066.18 410.679 1058.23 412.058L1056.52 402.205C1066.43 400.486 1077.09 402.07 1084.98 403.927C1085.4 404.025 1085.82 404.125 1086.22 404.226Z" fill="#F1E6E6"/>
<path id="auditorium way (Stroke)" fill-rule="evenodd" clip-rule="evenodd" d="M907.786 532.738C901.499 522.922 898.413 512.041 903.608 500.868L912.675 505.083C909.034 512.915 911.414 521.321 918.959 531.273C923.211 536.88 928.771 542.527 934.976 548.251C940.592 552.489 945.872 557.158 950.549 562.001L943.687 569.261L943.219 568.857C938.334 564.643 933.328 560.326 928.557 555.936C922.024 551.046 915.05 546.819 908.167 543.729C895.436 538.015 884.244 536.712 876.634 540.445L872.23 531.467C882.658 526.352 895.52 528.013 907.786 532.738Z" fill="#F1E6E6"/>
<path id="round" fill-rule="evenodd" clip-rule="evenodd" d="M374.804 1148.37C389.597 1148.37 401.589 1136.38 401.589 1121.59C401.589 1106.8 389.597 1094.8 374.804 1094.8C360.011 1094.8 348.018 1106.8 348.018 1121.59C348.018 1136.38 360.011 1148.37 374.804 1148.37ZM374.804 1166.96C399.861 1166.96 420.175 1146.65 420.175 1121.59C420.175 1096.53 399.861 1076.22 374.804 1076.22C349.746 1076.22 329.433 1096.53 329.433 1121.59C329.433 1146.65 349.746 1166.96 374.804 1166.96Z" fill="#F1E6E6"/>
<path id="main-route (Stroke)" d="M1091.01 275.249L1191.08 258.81L1192.03 279.458L1094.39 295.94C1093.87 296.025 1093.4 296.292 1093.06 296.693L410.004 1098.99L393.488 1086.06L1077.1 283.099C1080.66 278.917 1085.59 276.135 1091.01 275.249Z" fill="#F1E6E6"/>
<circle id="Ellipse 7" cx="375" cy="1122" r="28" fill="#A8DE86"/>
</g>
<g id="05-pools">
<circle id="big pool vereda" cx="1093.1" cy="350.353" r="24.3529" fill="#CBEDF4"/>
<circle id="big pool" cx="1093.22" cy="350.099" r="18.2662" fill="#33D2F4"/>
<circle id="small pool vereda" cx="1041.35" cy="413.671" r="24.3529" fill="#CBEDF4"/>
<circle id="small pool" cx="1041.31" cy="413.55" r="18.2662" fill="#33D2F4"/>
</g>
<g id="06-lake">
<path id="laguna" d="M610.898 691.864C638.337 693.135 657.477 742.995 663.617 767.766L629.318 808.099C623.178 805.241 606.579 797.81 589.303 790.95C567.707 782.375 557.227 758.557 554.687 742.36C552.146 726.163 576.6 690.277 610.898 691.864Z" fill="#33D1F4"/>
<path id="Vector 2" d="M621.696 774.118C632.621 776.405 638.21 789.891 641.386 794.126L649.961 783.963C644.562 774.542 634.971 762.177 634.717 757.604C634.399 751.887 638.528 739.502 614.074 726.798C589.62 714.095 587.844 750.979 587.08 757.604C586.127 765.861 608.04 771.26 621.696 774.118Z" fill="#EFEFC6"/>
</g>
<g id="07-auditorium">
<ellipse id="Ellipse 1" cx="949.704" cy="568.742" rx="26.6768" ry="26.0417" transform="rotate(1.63938 949.704 568.742)" fill="#E06B76"/>
<ellipse id="Ellipse 2" cx="926.864" cy="589.693" rx="22.2307" ry="21.5955" transform="rotate(1.63938 926.864 589.693)" fill="#E06B76"/>
<ellipse id="Ellipse 3" cx="972.543" cy="547.791" rx="22.2307" ry="21.5955" transform="rotate(1.63938 972.543 547.791)" fill="#E06B76"/>
</g>
<g id="08-school">
<path id="Union" fill-rule="evenodd" clip-rule="evenodd" d="M841.816 745.319V745.319C841.816 747.325 844.706 748.875 846.126 747.459L862.971 730.66C863.753 729.88 865.02 729.881 865.8 730.663L886.207 751.126C886.987 751.909 886.985 753.175 886.203 753.955L832.963 807.05C832.18 807.83 830.914 807.828 830.134 807.046L809.009 785.863C808.994 785.848 808.969 785.848 808.954 785.863V785.863C808.939 785.879 808.914 785.879 808.898 785.863L786.77 763.674C786.176 763.078 786.177 762.114 786.773 761.52V761.52C787.299 760.996 787.365 760.171 786.966 759.545C784.307 755.387 782.779 750.521 782.779 745.319C782.779 730.023 795.995 717.623 812.297 717.623C828.6 717.623 841.816 730.023 841.816 745.319ZM821.919 771.511C821.895 771.519 821.888 771.549 821.905 771.566V771.566C821.918 771.579 821.94 771.579 821.953 771.566V771.566C821.977 771.542 821.952 771.5 821.919 771.511V771.511Z" fill="#D9D9D9"/>
<path id="Polygon 1" d="M801.436 736.237L807.714 742.226L807.926 751.119L801.947 757.705L793.28 758.127L787.002 752.137L786.791 743.244L792.769 736.658L801.436 736.237Z" fill="#ED8080"/>
<path id="Polygon 2" d="M815.734 720.933L822.012 726.923L822.224 735.815L816.245 742.401L807.578 742.823L801.3 736.833L801.089 727.941L807.067 721.355L815.734 720.933Z" fill="#ED8080"/>
<path id="Polygon 3" d="M831.038 735.231L837.316 741.221L837.527 750.113L831.549 756.699L822.882 757.121L816.604 751.131L816.392 742.239L822.371 735.653L831.038 735.231Z" fill="#ED8080"/>
<rect id="aulas secundaria" x="868.294" y="735.672" width="22.7327" height="75.6495" transform="rotate(45.0783 868.294 735.672)" fill="#BDBDBD"/>
</g>
<g id="09-pool-restroom">
<rect id="restroom" x="1099.26" y="404.451" width="15.3059" height="23.3233" transform="rotate(-43 1099.26 404.451)" fill="#C8C6C6"/>
</g>
<g id="10-pool-showers">
<rect id="showers" x="1088.06" y="414.889" width="15.3059" height="23.3233" transform="rotate(-43 1088.06 414.889)" fill="#D9D9D9"/>
</g>
<g id="11-pool-warehouse">
<rect id="warehouse" x="1076.87" y="425.328" width="15.3059" height="23.3233" transform="rotate(-43 1076.87 425.328)" fill="#D9D9D9"/>
</g>
<g id="12-primary-school">
<rect id="Rectangle 2" x="1129.99" y="349.794" width="40.0152" height="43.8262" transform="rotate(-4.15478 1129.99 349.794)" fill="#BDBDBD"/>
<rect id="Rectangle 3" x="1135.86" y="431.806" width="40.0152" height="43.8262" transform="rotate(-4.15478 1135.86 431.806)" fill="#BDBDBD"/>
<rect id="Rectangle 4" x="1133.74" y="403.006" width="28.2355" height="20.4821" transform="rotate(-4.15478 1133.74 403.006)" fill="#BDBDBD"/>
</g>
<g id="13-volleyball-court">
<rect id="court" x="870.75" y="351.254" width="111.978" height="96.8" rx="5" transform="rotate(-47.839 870.75 351.254)" fill="#8AC266"/>
</g>
<g id="14-soccer-field-01">
<rect id="field" x="742" y="466.709" width="168.24" height="114" rx="5" transform="rotate(-47.839 742 466.709)" fill="#8AC266"/>
</g>
<g id="15-soccer-field-02">
<rect id="field_2" x="625.424" y="594.538" width="168.24" height="114" rx="5" transform="rotate(-47.839 625.424 594.538)" fill="#8AC266"/>
</g>
<rect id="Rectangle 6" x="957.47" y="604.413" width="55.196" height="23.182" transform="rotate(-45.6477 957.47 604.413)" fill="#D9D9D9"/>
</g>
</svg>
